<!-- <svg width="41" height="41" viewBox="0 0 41 41" fill="none" xmlns="http://www.w3.org/2000/svg">
<path d="M20.625 37.25L4 20.625M4 20.625L20.625 4M4 20.625H37.5" stroke="white" stroke-width="7" stroke-linecap="round" stroke-linejoin="round"/>
</svg> -->
<svg width="41" height="41" viewBox="0 0 41 41" fill="none" xmlns="http://www.w3.org/2000/svg">
<path d="M1.35236 14.5458C1.39541 14.4226 1.43842 14.3051 1.47907 14.1977H1.48L1.73725 13.5846C2.31506 12.2075 3.50841 10.125 4.90498 8.04209C6.29876 5.96335 7.84063 3.9654 9.09154 2.72935L9.87282 1.98298C10.0835 1.7888 10.2922 1.60913 10.4287 1.51386L10.4441 1.50312L10.4591 1.4918C10.8834 1.17134 11.4253 1 11.9846 1C12.6056 1 13.1638 1.18408 13.6185 1.51915L14.4123 2.2547L14.583 2.42075L14.5926 2.43003L14.6023 2.43905C15.8008 3.54445 17.4407 5.60633 18.9587 7.83325C20.4741 10.0564 21.7941 12.3354 22.3965 13.8493L22.5774 14.3213C22.7864 14.9059 22.9778 15.5741 22.9999 15.9089C22.9961 16.3654 22.891 16.8032 22.6791 17.232C22.381 17.7496 21.9172 18.1621 21.3797 18.3918C21.191 18.4623 20.7505 18.575 20.2817 18.6814C20.0574 18.7322 19.8477 18.777 19.6933 18.809C19.6285 18.8223 19.5745 18.8332 19.534 18.8412H19.5336L19.4439 18.8577C17.9418 19.1339 15.5048 19.3027 12.715 19.3269C12.7143 19.3269 12.7135 19.3269 12.7128 19.3269L12.0132 19.3299C12.0125 19.3299 12.0118 19.3299 12.0111 19.3299C9.1144 19.3299 6.4979 19.1606 4.81299 18.913L3.75928 18.6927C3.15503 18.5598 2.63871 18.4176 2.44293 18.3163C1.54123 17.8489 1 16.9448 1 15.9991V15.9032C1.01288 15.6383 1.15488 15.1106 1.35236 14.5458ZM10.6137 25.6831L10.6176 25.6392V25.595C10.6176 24.8539 11.227 24.2365 11.9991 24.2365C12.7728 24.2365 13.3806 24.8533 13.3806 25.595V25.6392L13.3845 25.6831L14.0345 33.0332C14.0131 34.1142 13.1188 35 11.9991 35C10.8794 35 9.98513 34.1142 9.96371 33.0332L10.6137 25.6831Z" stroke="white" stroke-width="2"/>
</svg>
