<svg id="visual" viewBox="0 0 900 600" width="900" height="600" xmlns="http://www.w3.org/2000/svg" xmlns:xlink="http://www.w3.org/1999/xlink" version="1.1"><rect width="900" height="600" fill="#004b34"></rect><g><g transform="translate(155 221)"><path d="M0 -54.2L54.2 0L0 54.2L-54.2 0Z" fill="#29a679"></path></g><g transform="translate(686 148)"><path d="M0 -26L26 0L0 26L-26 0Z" fill="#29a679"></path></g><g transform="translate(697 371)"><path d="M0 -42L42 0L0 42L-42 0Z" fill="#29a679"></path></g><g transform="translate(586 218)"><path d="M0 -50L50 0L0 50L-50 0Z" fill="#29a679"></path></g><g transform="translate(508 87)"><path d="M0 -30L30 0L0 30L-30 0Z" fill="#29a679"></path></g><g transform="translate(434 237)"><path d="M0 -46L46 0L0 46L-46 0Z" fill="#29a679"></path></g><g transform="translate(857 442)"><path d="M0 -33L33 0L0 33L-33 0Z" fill="#29a679"></path></g><g transform="translate(794 43)"><path d="M0 -13L13 0L0 13L-13 0Z" fill="#29a679"></path></g><g transform="translate(46 409)"><path d="M0 -41L41 0L0 41L-41 0Z" fill="#29a679"></path></g><g transform="translate(255 584)"><path d="M0 -40L40 0L0 40L-40 0Z" fill="#29a679"></path></g><g transform="translate(65 13)"><path d="M0 -15L15 0L0 15L-15 0Z" fill="#29a679"></path></g><g transform="translate(416 377)"><path d="M0 -53L53 0L0 53L-53 0Z" fill="#29a679"></path></g><g transform="translate(540 433)"><path d="M0 -17L17 0L0 17L-17 0Z" fill="#29a679"></path></g><g transform="translate(213 56)"><path d="M0 -22L22 0L0 22L-22 0Z" fill="#29a679"></path></g><g transform="translate(810 599)"><path d="M0 -34L34 0L0 34L-34 0Z" fill="#29a679"></path></g><g transform="translate(35 584)"><path d="M0 -52L52 0L0 52L-52 0Z" fill="#29a679"></path></g><g transform="translate(886 139)"><path d="M0 -50L50 0L0 50L-50 0Z" fill="#29a679"></path></g><g transform="translate(696 536)"><path d="M0 -41L41 0L0 41L-41 0Z" fill="#29a679"></path></g><g transform="translate(242 327)"><path d="M0 -45L45 0L0 45L-45 0Z" fill="#29a679"></path></g><g transform="translate(328 130)"><path d="M0 -27L27 0L0 27L-27 0Z" fill="#29a679"></path></g><g transform="translate(382 26)"><path d="M0 -34L34 0L0 34L-34 0Z" fill="#29a679"></path></g><g transform="translate(349 517)"><path d="M0 -23L23 0L0 23L-23 0Z" fill="#29a679"></path></g><g transform="translate(575 592)"><path d="M0 -44L44 0L0 44L-44 0Z" fill="#29a679"></path></g><g transform="translate(888 305)"><path d="M0 -35L35 0L0 35L-35 0Z" fill="#29a679"></path></g><g transform="translate(683 4)"><path d="M0 -53L53 0L0 53L-53 0Z" fill="#29a679"></path></g><g transform="translate(3 264)"><path d="M0 -16L16 0L0 16L-16 0Z" fill="#29a679"></path></g><g transform="translate(207 476)"><path d="M0 -18L18 0L0 18L-18 0Z" fill="#29a679"></path></g><g transform="translate(793 197)"><path d="M0 -32L32 0L0 32L-32 0Z" fill="#29a679"></path></g><g transform="translate(31 151)"><path d="M0 -16L16 0L0 16L-16 0Z" fill="#29a679"></path></g><g transform="translate(453 591)"><path d="M0 -15L15 0L0 15L-15 0Z" fill="#29a679"></path></g><g transform="translate(131 334)"><path d="M0 -45L45 0L0 45L-45 0Z" fill="#29a679"></path></g><g transform="translate(144 576)"><path d="M0 -42L42 0L0 42L-42 0Z" fill="#29a679"></path></g><g transform="translate(321 247)"><path d="M0 -19L19 0L0 19L-19 0Z" fill="#29a679"></path></g><g transform="translate(531 313)"><path d="M0 -31L31 0L0 31L-31 0Z" fill="#29a679"></path></g></g></svg>