<svg width="118" height="43" viewBox="0 0 118 43" fill="none" xmlns="http://www.w3.org/2000/svg">
<g clip-path="url(#clip0)">
<path d="M110.77 11.4574C103.772 6.84448 77.5146 6.5896 77.5146 6.5896C77.5146 6.5896 79.4491 14.8398 78.4121 20.9487C77.3751 27.0577 76.3444 39.0099 76.3444 39.0099C76.3444 39.0099 97.0537 39.0099 107.108 33.0257C117.163 27.0414 115.992 21.8052 115.992 21.8052C115.992 21.8052 117.767 16.0702 110.77 11.4574Z" stroke="black" stroke-width="3"/>
<path d="M62.3542 3.89745L3.69238 3L2.63039 41H61.3172L66.5576 38.6257H76.5061L78.6018 35.4205L79.8263 7.40402L78.5166 5.97945H67.47L62.3542 3.89745Z" stroke="black" stroke-width="3"/>
</g>
<defs>
<clipPath id="clip0">
<rect width="118" height="43" fill="white"/>
</clipPath>
</defs>
</svg>
