<svg width="169" height="206" viewBox="0 0 169 206" fill="none" xmlns="http://www.w3.org/2000/svg">
<g clip-path="url(#clip0)">
<path d="M119.313 12.0243C106.609 17.2105 86.1406 46.7443 86.1406 46.7443C86.1406 46.7443 97.7046 55.8692 104.998 62.9208C112.292 69.9723 124.693 84.0169 124.693 84.0169C124.693 84.0169 143.849 56.0395 145.065 36.9207C146.28 17.8019 138.124 14.54 138.124 14.54C138.124 14.54 132.017 6.83813 119.313 12.0243Z" fill="#77582F"/>
<path d="M67.1161 68.3371L1 162.15L46.356 206L111.338 111.091L113.86 100.527L124.875 84.4386L122.766 78.2295L89.3164 45.89L85.8975 46.7549L74.8819 62.8437L67.1161 68.3371Z" fill="#F0C57B"/>
</g>
</svg>
